<?xml version="1.0" encoding="utf-8"?>
<!-- Generated by IcoMoon.io -->
<!DOCTYPE svg PUBLIC "-//W3C//DTD SVG 1.1//EN" "http://www.w3.org/Graphics/SVG/1.1/DTD/svg11.dtd">
<svg version="1.1" xmlns="http://www.w3.org/2000/svg" xmlns:xlink="http://www.w3.org/1999/xlink" width="32" height="32" viewBox="0 0 32 32">
<g id="icomoon-ignore">
</g>
<path d="M18.519 23.728c0 0.637-0.231 1.188-0.694 1.65s-1.012 0.694-1.65 0.694c-0.659 0-1.219-0.228-1.675-0.684s-0.684-1.012-0.684-1.675c0-0.637 0.231-1.188 0.694-1.65s1.012-0.694 1.647-0.694c0.659 0 1.219 0.228 1.675 0.684 0.459 0.459 0.688 1.016 0.688 1.675zM24.441 0.559l-0.016 23.072-7.834 7.831c-0.109 0.109-0.247 0.166-0.413 0.166s-0.303-0.056-0.412-0.166l-7.816-7.816v-23.087h16.491zM17.828 25.378c0.462-0.462 0.694-1.012 0.694-1.65 0-0.659-0.228-1.219-0.684-1.675s-1.012-0.684-1.675-0.684c-0.637 0-1.188 0.231-1.647 0.694-0.463 0.462-0.694 1.012-0.694 1.65 0 0.663 0.228 1.219 0.684 1.675s1.012 0.684 1.675 0.684c0.634 0 1.184-0.231 1.647-0.694z" fill="#000000"></path>
</svg>
